<svg xmlns="http://www.w3.org/2000/svg" width="20" height="20" viewBox="0 0 256 256" role="img" aria-label="Pulsante verde lucido con bordo scuro e highlight verso il centro" xmlns:bx="https://boxy-svg.com">
  <defs>
    <radialGradient id="gRad" cx="0.479" cy="1.789" r="60%" gradientTransform="matrix(1.192664, 0.0086, -0.021202, 2.940155, -0.049704, -3.539276)">
      <stop offset="0" stop-color="#a5ffb0"></stop>
      <stop offset="0.539" stop-color="#37e63b"></stop>
      <stop offset="1" stop-color="#0a7f0a"></stop>
    </radialGradient>
    <linearGradient id="borderGrad" x1="0" x2="0" y1="0" y2="1">
      <stop offset="0" style="stop-color: rgb(27, 127, 27);"></stop>
      <stop offset="1" style="stop-color: rgb(0, 56, 0);"></stop>
    </linearGradient>
    <filter id="innerShadow" x="-50%" y="-50%" width="200%" height="200%">
      <feOffset dx="0" dy="3" in="SourceAlpha" result="off"></feOffset>
      <feGaussianBlur in="off" stdDeviation="6" result="blur"></feGaussianBlur>
      <feComposite in="blur" in2="SourceAlpha" operator="out" result="cut"></feComposite>
      <feComponentTransfer in="cut" result="shadow">
        <feFuncA type="linear" slope="0.25"></feFuncA>
      </feComponentTransfer>
      <feMerge>
        <feMergeNode in="shadow"></feMergeNode>
        <feMergeNode in="SourceGraphic"></feMergeNode>
      </feMerge>
    </filter>
    <filter id="glow" x="-50%" y="-50%" width="200%" height="200%">
      <feGaussianBlur stdDeviation="8" result="g"></feGaussianBlur>
      <feMerge>
        <feMergeNode in="g"></feMergeNode>
        <feMergeNode in="SourceGraphic"></feMergeNode>
      </feMerge>
    </filter>
    <bx:grid x="0" y="0" width="256.533" height="257.49"></bx:grid>
  </defs>
  <rect width="256.533" height="257.49" style="stroke: rgb(0, 0, 0);"></rect>
  <rect x="0.533" width="256" height="256" fill="url(#borderGrad)" style="paint-order: fill;" rx="46.971" ry="46.971"></rect>
  <rect x="12.8" width="230.4" height="230.4" rx="23.2" ry="23.2" fill="url(#gRad)" filter="url(#innerShadow)" y="12.8" style="paint-order: fill;"></rect>
  <path d="M 28.8 19.691 C 80 99.189 176 99.189 227.2 19.691 C 130.419 20.264 129.89 20.264 28.8 19.691 Z" fill="#ffffff" opacity="0.30" filter="url(#glow)" style="stroke: rgb(186, 255, 186);"></path>
  <path d="M 29.546 21.272 C 90.917 98.67 168.785 100.2 227.934 20.553" fill="none" stroke-opacity="0.6" stroke-width="3" stroke-linecap="round" style="stroke: rgb(255, 255, 255);"></path>
  <path d="M 51.142 45.268 C 116.297 98.247 161.816 89.201 209.757 42.778 C 129.241 60.108 123.169 58.791 51.142 45.268 Z" fill="#ffffff" opacity="0.30" filter="url(#glow)" style="stroke: rgb(186, 255, 186); stroke-width: 1;"></path>
</svg>
